<?xml version="1.0" standalone="no"?>
<!DOCTYPE svg PUBLIC "-//W3C//DTD SVG 20010904//EN"
 "http://www.w3.org/TR/2001/REC-SVG-20010904/DTD/svg10.dtd">
<svg version="1.0" xmlns="http://www.w3.org/2000/svg"
 width="917.000000pt" height="917.000000pt" viewBox="0 0 917.000000 917.000000"
 preserveAspectRatio="xMidYMid meet">
<metadata>
Created by potrace 1.14, written by Peter Selinger 2001-2017
</metadata>
<g transform="translate(0.000000,917.000000) scale(0.100000,-0.100000)"
fill="#000000" stroke="none">
<path d="M4435 8750 c-973 -60 -1840 -403 -2380 -944 -185 -186 -333 -396
-406 -579 -24 -60 -50 -102 -97 -157 -164 -193 -291 -431 -356 -671 -55 -201
-70 -340 -70 -634 0 -356 38 -673 131 -1080 52 -229 53 -204 -13 -245 -31 -19
-84 -65 -118 -102 -192 -206 -208 -485 -46 -808 132 -264 341 -448 585 -515
74 -20 285 -31 342 -17 l43 10 50 -95 c136 -258 362 -523 587 -688 45 -33 82
-63 83 -66 0 -4 -35 -33 -77 -65 -164 -122 -310 -290 -490 -566 -196 -299
-301 -555 -269 -655 23 -72 197 -111 601 -133 269 -16 317 -27 958 -234 130
-42 272 -81 315 -88 105 -16 559 -16 702 0 125 14 257 36 475 77 181 34 323
38 590 14 424 -37 650 -50 868 -49 335 0 538 26 740 96 121 42 145 56 187 109
127 160 151 436 53 629 -97 191 -385 498 -819 872 l-141 121 56 33 c106 63
202 142 306 254 116 124 288 331 373 448 53 75 57 78 95 78 65 0 242 29 335
56 48 13 134 48 192 76 234 116 370 323 370 561 0 211 -116 400 -304 492 -55
28 -75 43 -71 53 21 55 47 185 61 305 13 114 15 201 11 437 -9 487 -67 929
-213 1610 -79 370 -186 648 -341 885 -434 664 -1216 1072 -2233 1164 -160 15
-508 20 -665 11z"/>
</g>
</svg>
